name baseline.mot
datacolumns 19
datarows 24
range 9.08663500000000 9.12497900000000
endheader
time	ground_force1_vx	ground_force1_vy	ground_force1_vz	ground_force1_px	ground_force1_py	ground_force1_pz	ground_force2_vx	ground_force2_vy	ground_force2_vz	ground_force2_px	ground_force2_py	ground_force2_pz	ground_torque1_x	ground_torque1_y	ground_torque1_z	ground_torque2_x	ground_torque2_y	ground_torque2_z	
9.08663500000000	-60.24331000000000	782.07609900000000	63.75752100000000	-0.06915000000000	0.00000000000000	0.16254300000000	0.00000000000000	0.00000000000000	0.00000000000000	0.00000000000000	0.00000000000000	0.00000000000000	0.00000000000000	11.15702500000000	0.00000000000000	0.00000000000000	0.00000000000000	0.00000000000000	
9.08829900000000	-60.89553100000000	781.81685600000003	63.79086000000000	-0.07017800000000	0.00000000000000	0.16249300000000	0.00000000000000	0.00000000000000	0.00000000000000	0.00000000000000	0.00000000000000	0.00000000000000	0.00000000000000	11.22191300000000	0.00000000000000	0.00000000000000	0.00000000000000	0.00000000000000	
9.08998100000000	-61.55684500000000	781.51664500000004	63.81466300000000	-0.07120600000000	0.00000000000000	0.16244100000000	0.00000000000000	0.00000000000000	0.00000000000000	0.00000000000000	0.00000000000000	0.00000000000000	0.00000000000000	11.29033300000000	0.00000000000000	0.00000000000000	0.00000000000000	0.00000000000000	
9.09162700000000	-62.22751000000000	781.17316000000005	63.82840900000000	-0.07223600000000	0.00000000000000	0.16238600000000	0.00000000000000	0.00000000000000	0.00000000000000	0.00000000000000	0.00000000000000	0.00000000000000	0.00000000000000	11.36252300000000	0.00000000000000	0.00000000000000	0.00000000000000	0.00000000000000	
9.09329800000000	-62.90776000000000	780.78400799999997	63.83157300000000	-0.07326700000000	0.00000000000000	0.16233000000000	0.00000000000000	0.00000000000000	0.00000000000000	0.00000000000000	0.00000000000000	0.00000000000000	0.00000000000000	11.43872000000000	0.00000000000000	0.00000000000000	0.00000000000000	0.00000000000000	
9.09498000000000	-63.59780400000000	780.34670700000004	63.82363200000000	-0.07429900000000	0.00000000000000	0.16227100000000	0.00000000000000	0.00000000000000	0.00000000000000	0.00000000000000	0.00000000000000	0.00000000000000	0.00000000000000	11.51915600000000	0.00000000000000	0.00000000000000	0.00000000000000	0.00000000000000	
9.09663500000000	-64.29782600000000	779.85868600000003	63.80406200000000	-0.07533100000000	0.00000000000000	0.16221000000000	0.00000000000000	0.00000000000000	0.00000000000000	0.00000000000000	0.00000000000000	0.00000000000000	0.00000000000000	11.60405500000000	0.00000000000000	0.00000000000000	0.00000000000000	0.00000000000000	
9.09834100000000	-65.00797300000001	779.31728499999997	63.77234000000000	-0.07636300000000	0.00000000000000	0.16214800000000	-0.84730400000000	3.56004700000000	1.13293600000000	0.00000000000000	0.00000000000000	0.00000000000000	0.00000000000000	11.69363700000000	0.00000000000000	0.00000000000000	0.25966500000000	0.00000000000000	
9.09997800000000	-65.72836300000000	778.71975699999996	63.72794600000000	-0.07739500000000	0.00000000000000	0.16208200000000	-1.30562800000000	6.97123400000000	1.98038900000000	0.00000000000000	0.00000000000000	0.00000000000000	0.00000000000000	11.78811000000000	0.00000000000000	0.00000000000000	0.46942800000000	0.00000000000000	
9.10163100000000	-66.45907400000000	778.06326500000000	63.67036500000000	-0.07842700000000	0.00000000000000	0.16201500000000	-1.81257100000000	11.10692900000000	2.97403000000000	0.00000000000000	0.00000000000000	0.00000000000000	0.00000000000000	11.88767400000000	0.00000000000000	0.00000000000000	0.71819300000000	0.00000000000000	
9.10329800000000	-67.20014700000000	777.34488299999998	63.59908700000000	-0.07945900000000	0.00000000000000	0.16194600000000	-2.34908700000000	15.92680800000000	4.09409300000000	0.00000000000000	0.00000000000000	0.00000000000000	0.00000000000000	11.99251900000000	0.00000000000000	0.00000000000000	1.00187500000000	0.00000000000000	
9.10498600000000	-67.95157600000000	776.56160399999999	63.51360800000000	-0.08049000000000	0.00000000000000	0.16187400000000	-2.89222500000000	21.35885000000000	5.31303900000000	0.00000000000000	0.00000000000000	0.00000000000000	0.00000000000000	12.10282200000000	0.00000000000000	0.00000000000000	1.31445900000000	0.00000000000000	
9.10663200000000	-68.71331400000000	775.71033399999999	63.41343400000000	-0.08152100000000	0.00000000000000	0.16180000000000	-3.41657500000000	27.30475600000000	6.59738600000000	0.19550900000000	0.00000000000000	-0.06888400000000	0.00000000000000	12.21874800000000	0.00000000000000	0.00000000000000	2.70290100000000	0.00000000000000	
9.10829700000000	-69.48526300000000	774.78789600000005	63.29807900000000	-0.08255100000000	0.00000000000000	0.16172500000000	-3.89604100000000	33.64817200000000	7.91020100000000	0.20084700000000	0.00000000000000	-0.06949900000000	0.00000000000000	12.34044600000000	0.00000000000000	0.00000000000000	3.31319800000000	0.00000000000000	
9.10997500000000	-70.26727400000000	773.79103599999996	63.16707000000000	-0.08357900000000	0.00000000000000	0.16164600000000	-4.30571700000000	40.26465100000000	9.21394400000000	0.20556900000000	0.00000000000000	-0.07007500000000	0.00000000000000	12.46805000000000	0.00000000000000	0.00000000000000	3.93855300000000	0.00000000000000	
9.11163200000000	-71.05914700000000	772.71642599999996	63.01994500000000	-0.08460600000000	0.00000000000000	0.16156600000000	-4.62361100000000	47.03190400000000	10.47326200000000	0.20977600000000	0.00000000000000	-0.07061800000000	0.00000000000000	12.60167900000000	0.00000000000000	0.00000000000000	4.56341800000000	0.00000000000000	
9.11329700000000	-71.86062200000001	771.56066099999998	62.85625800000000	-0.08563200000000	0.00000000000000	0.16148400000000	-4.83200700000000	53.83899700000000	11.65738200000000	0.21354800000000	0.00000000000000	-0.07113500000000	0.00000000000000	12.74143300000000	0.00000000000000	0.00000000000000	5.17370400000000	0.00000000000000	
9.11496500000000	-72.67138400000000	770.32027200000005	62.67557700000000	-0.08665600000000	0.00000000000000	0.16139900000000	-4.91833200000000	60.59350800000000	12.74184700000000	0.21695000000000	0.00000000000000	-0.07162800000000	0.00000000000000	12.88739200000000	0.00000000000000	0.00000000000000	5.75764600000000	0.00000000000000	
9.11662800000000	-73.49105600000000	768.99172599999997	62.47748700000000	-0.08767800000000	0.00000000000000	0.16131200000000	-4.87548700000000	67.22613600000000	13.70949500000000	0.22003400000000	0.00000000000000	-0.07210100000000	0.00000000000000	13.03962000000000	0.00000000000000	0.00000000000000	6.30637200000000	0.00000000000000	
9.11829400000000	-74.31919900000000	767.57142999999996	62.26159200000000	-0.08869800000000	0.00000000000000	0.16122300000000	-4.70169200000000	73.69268599999999	14.55069700000000	0.22284400000000	0.00000000000000	-0.07255700000000	0.00000000000000	13.19815500000000	0.00000000000000	0.00000000000000	6.81412700000000	0.00000000000000	
9.11996400000000	-75.15530900000000	766.05574200000001	62.02751600000000	-0.08971500000000	0.00000000000000	0.16113200000000	-4.39991400000000	79.97366400000000	15.26293800000000	0.22541500000000	0.00000000000000	-0.07299900000000	0.00000000000000	13.36301700000000	0.00000000000000	0.00000000000000	7.27822000000000	0.00000000000000	
9.12163000000000	-75.99881600000001	764.44097299999999	61.77490400000000	-0.09073000000000	0.00000000000000	0.16103900000000	-3.97701600000000	86.07190300000001	15.84988400000000	0.22777700000000	0.00000000000000	-0.07342700000000	0.00000000000000	13.53420300000000	0.00000000000000	0.00000000000000	7.69871600000000	0.00000000000000	
9.12329900000000	-76.84908100000000	762.72339299999999	61.50342200000000	-0.09174200000000	0.00000000000000	0.16094400000000	-3.44272000000000	92.00875499999999	16.32010600000000	0.22995400000000	0.00000000000000	-0.07384400000000	0.00000000000000	13.71168400000000	0.00000000000000	0.00000000000000	8.07796000000000	0.00000000000000	
9.12497900000000	-77.70539900000000	760.89924299999996	61.21276300000000	-0.09275100000000	0.00000000000000	0.16084700000000	-2.80852300000000	97.81943500000000	16.68563000000000	0.23196800000000	0.00000000000000	-0.07425000000000	0.00000000000000	13.89540900000000	0.00000000000000	0.00000000000000	8.41999100000000	0.00000000000000	
